<mxfile host="Electron" modified="2024-01-31T08:51:53.208Z" agent="Mozilla/5.0 (Windows NT 10.0; Win64; x64) AppleWebKit/537.36 (KHTML, like Gecko) draw.io/22.0.2 Chrome/114.0.5735.289 Electron/25.8.4 Safari/537.36" etag="v0nTMz2Gfvj7TSJBC3Rw" version="22.0.2" type="device">
  <diagram name="Page-1" id="i_BMNWbKgBAU6jFJ3_ZR">
    <mxGraphModel dx="414" dy="242" grid="1" gridSize="10" guides="1" tooltips="1" connect="1" arrows="1" fold="1" page="1" pageScale="1" pageWidth="827" pageHeight="1169" math="0" shadow="0">
      <root>
        <mxCell id="0" />
        <mxCell id="1" parent="0" />
        <mxCell id="KsdpnjuKP9ndE49-Ah95-3" value="" style="endArrow=none;html=1;rounded=0;exitX=0.5;exitY=0;exitDx=0;exitDy=0;" edge="1" parent="1" source="KsdpnjuKP9ndE49-Ah95-2">
          <mxGeometry width="50" height="50" relative="1" as="geometry">
            <mxPoint x="330" y="470" as="sourcePoint" />
            <mxPoint x="220" y="480" as="targetPoint" />
          </mxGeometry>
        </mxCell>
        <mxCell id="KsdpnjuKP9ndE49-Ah95-4" value="" style="endArrow=none;html=1;rounded=0;exitX=0.5;exitY=0;exitDx=0;exitDy=0;" edge="1" parent="1" source="KsdpnjuKP9ndE49-Ah95-1">
          <mxGeometry width="50" height="50" relative="1" as="geometry">
            <mxPoint x="230" y="530" as="sourcePoint" />
            <mxPoint x="400" y="480" as="targetPoint" />
          </mxGeometry>
        </mxCell>
        <mxCell id="ZKlQ19kJKnS1zUETaWxY-1" value="" style="rounded=0;whiteSpace=wrap;html=1;fillColor=#E6E6E6;strokeColor=#7aa116;strokeWidth=5;glass=0;" parent="1" vertex="1">
          <mxGeometry x="160" y="320" width="300" height="160" as="geometry" />
        </mxCell>
        <mxCell id="ZKlQ19kJKnS1zUETaWxY-2" value="" style="rounded=0;whiteSpace=wrap;html=1;fillColor=#dae8fc;strokeColor=#6c8ebf;" parent="1" vertex="1">
          <mxGeometry x="170" y="370" width="280" height="100" as="geometry" />
        </mxCell>
        <mxCell id="ZKlQ19kJKnS1zUETaWxY-3" value="" style="image;sketch=0;aspect=fixed;html=1;points=[];align=center;fontSize=12;image=img/lib/mscae/Docker.svg;" parent="1" vertex="1">
          <mxGeometry x="389" y="350" width="48.78" height="40" as="geometry" />
        </mxCell>
        <mxCell id="ZKlQ19kJKnS1zUETaWxY-4" value="Led application" style="rounded=0;whiteSpace=wrap;html=1;fillColor=#fff2cc;strokeColor=#d6b656;" parent="1" vertex="1">
          <mxGeometry x="360" y="410" width="80" height="50" as="geometry" />
        </mxCell>
        <mxCell id="ZKlQ19kJKnS1zUETaWxY-5" value="Button application" style="rounded=0;whiteSpace=wrap;html=1;fillColor=#d5e8d4;strokeColor=#82b366;" parent="1" vertex="1">
          <mxGeometry x="180" y="410" width="80" height="50" as="geometry" />
        </mxCell>
        <mxCell id="ZKlQ19kJKnS1zUETaWxY-7" value="Enable/disable blinking" style="text;html=1;strokeColor=none;fillColor=none;align=center;verticalAlign=middle;whiteSpace=wrap;rounded=0;" parent="1" vertex="1">
          <mxGeometry x="280" y="420" width="60" height="30" as="geometry" />
        </mxCell>
        <mxCell id="ZKlQ19kJKnS1zUETaWxY-6" value="" style="endArrow=classic;html=1;rounded=0;exitX=1;exitY=0.5;exitDx=0;exitDy=0;entryX=0;entryY=0.5;entryDx=0;entryDy=0;" parent="1" source="ZKlQ19kJKnS1zUETaWxY-5" target="ZKlQ19kJKnS1zUETaWxY-4" edge="1">
          <mxGeometry width="50" height="50" relative="1" as="geometry">
            <mxPoint x="350" y="430" as="sourcePoint" />
            <mxPoint x="400" y="380" as="targetPoint" />
          </mxGeometry>
        </mxCell>
        <mxCell id="ZKlQ19kJKnS1zUETaWxY-9" value="" style="rounded=0;whiteSpace=wrap;html=1;fillColor=#7aa116;strokeColor=#729615;" parent="1" vertex="1">
          <mxGeometry x="170" y="280" width="60" height="70" as="geometry" />
        </mxCell>
        <mxCell id="ZKlQ19kJKnS1zUETaWxY-10" value="" style="sketch=0;outlineConnect=0;fontColor=#232F3E;gradientColor=none;fillColor=#FFFFFF;strokeColor=none;dashed=0;verticalLabelPosition=bottom;verticalAlign=top;align=center;html=1;fontSize=12;fontStyle=0;aspect=fixed;pointerEvents=1;shape=mxgraph.aws4.hardware_board;labelBackgroundColor=#82b366;" parent="1" vertex="1">
          <mxGeometry x="180" y="285" width="40" height="40" as="geometry" />
        </mxCell>
        <mxCell id="ZKlQ19kJKnS1zUETaWxY-11" value="Device" style="text;html=1;strokeColor=none;fillColor=none;align=center;verticalAlign=middle;whiteSpace=wrap;rounded=0;fontSize=14;fontStyle=1;fontColor=#FFFFFF;" parent="1" vertex="1">
          <mxGeometry x="170" y="320" width="60" height="30" as="geometry" />
        </mxCell>
        <mxCell id="ZKlQ19kJKnS1zUETaWxY-13" value="" style="sketch=0;points=[[0,0,0],[0.25,0,0],[0.5,0,0],[0.75,0,0],[1,0,0],[0,1,0],[0.25,1,0],[0.5,1,0],[0.75,1,0],[1,1,0],[0,0.25,0],[0,0.5,0],[0,0.75,0],[1,0.25,0],[1,0.5,0],[1,0.75,0]];outlineConnect=0;fontColor=#232F3E;fillColor=#7AA116;strokeColor=#ffffff;dashed=0;verticalLabelPosition=bottom;verticalAlign=top;align=center;html=1;fontSize=12;fontStyle=1;aspect=fixed;shape=mxgraph.aws4.resourceIcon;resIcon=mxgraph.aws4.iot_core;" parent="1" vertex="1">
          <mxGeometry x="680" y="410" width="50" height="50" as="geometry" />
        </mxCell>
        <mxCell id="ZKlQ19kJKnS1zUETaWxY-14" value="AWS IoT Core" style="text;html=1;strokeColor=none;fillColor=none;align=center;verticalAlign=middle;whiteSpace=wrap;rounded=0;fontStyle=1" parent="1" vertex="1">
          <mxGeometry x="675" y="460" width="60" height="40" as="geometry" />
        </mxCell>
        <mxCell id="ZKlQ19kJKnS1zUETaWxY-16" value="" style="endArrow=classic;html=1;rounded=0;entryX=1;entryY=0.25;entryDx=0;entryDy=0;" parent="1" target="ZKlQ19kJKnS1zUETaWxY-4" edge="1">
          <mxGeometry width="50" height="50" relative="1" as="geometry">
            <mxPoint x="600" y="423" as="sourcePoint" />
            <mxPoint x="440" y="370" as="targetPoint" />
          </mxGeometry>
        </mxCell>
        <mxCell id="ZKlQ19kJKnS1zUETaWxY-17" value="Change frequency" style="text;html=1;strokeColor=none;fillColor=none;align=center;verticalAlign=middle;whiteSpace=wrap;rounded=0;" parent="1" vertex="1">
          <mxGeometry x="460" y="400" width="110" height="30" as="geometry" />
        </mxCell>
        <mxCell id="ZKlQ19kJKnS1zUETaWxY-18" value="" style="endArrow=classic;html=1;rounded=0;exitX=1;exitY=0.75;exitDx=0;exitDy=0;" parent="1" source="ZKlQ19kJKnS1zUETaWxY-4" edge="1">
          <mxGeometry width="50" height="50" relative="1" as="geometry">
            <mxPoint x="390" y="420" as="sourcePoint" />
            <mxPoint x="600" y="448" as="targetPoint" />
          </mxGeometry>
        </mxCell>
        <mxCell id="ZKlQ19kJKnS1zUETaWxY-19" value="Data (frequency/state)" style="text;html=1;strokeColor=none;fillColor=none;align=center;verticalAlign=middle;whiteSpace=wrap;rounded=0;" parent="1" vertex="1">
          <mxGeometry x="460" y="420" width="130" height="40" as="geometry" />
        </mxCell>
        <mxCell id="ZKlQ19kJKnS1zUETaWxY-21" value="" style="sketch=0;outlineConnect=0;fontColor=#232F3E;gradientColor=none;fillColor=#7AA116;strokeColor=none;dashed=0;verticalLabelPosition=bottom;verticalAlign=top;align=center;html=1;fontSize=12;fontStyle=0;aspect=fixed;pointerEvents=1;shape=mxgraph.aws4.mqtt_protocol;" parent="1" vertex="1">
          <mxGeometry x="600" y="410" width="50" height="50" as="geometry" />
        </mxCell>
        <mxCell id="ZKlQ19kJKnS1zUETaWxY-22" value="" style="endArrow=classic;startArrow=classic;html=1;rounded=0;entryX=0;entryY=0.5;entryDx=0;entryDy=0;entryPerimeter=0;" parent="1" source="ZKlQ19kJKnS1zUETaWxY-21" target="ZKlQ19kJKnS1zUETaWxY-13" edge="1">
          <mxGeometry width="50" height="50" relative="1" as="geometry">
            <mxPoint x="550" y="420" as="sourcePoint" />
            <mxPoint x="600" y="370" as="targetPoint" />
          </mxGeometry>
        </mxCell>
        <mxCell id="KsdpnjuKP9ndE49-Ah95-1" value="Led" style="shape=image;verticalLabelPosition=bottom;labelBackgroundColor=default;verticalAlign=top;aspect=fixed;imageAspect=0;image=data:image/png,iVBORw0KGgoAAAANSUhEUgAAAvAAAALwCAYAAADxpkF6AAAABmJLR0QA/wD/AP+gvaeTAAAgAElEQVR4nOzdd/w1Z13n/9edQhohQOgJELqAdASkimVBBV1FUKyroKiIu7LIqmvFhqxrwV5RF1ZUUAFBQUBRFhGQKtJLaAkJBBJSSXLfvz/mzk+IKffM95wzpzyfj8c8EsLMmfdcc+a+PzPnmusqAAAAAAAAAAAAAAAAAAAAAAAAAAAAAAAAAAAAAAAAAAAAAAAAAAAAAAAAAAAAAAAAAAAAAAAAAAAAAAAAAAAAAAAAAAAAAAAAAAAAAAAAAAAAAAAAAAAAAAAAAAAAAAAAAAAAAAAAAAAAAAAAAAAAAAAAAAAAAAAAAAAAAAAAAAAAAAAAAAAAAAAAAAAAAAAAAAAAAAAAAAAAAAAAAAAAAAAAAAAAAAAAAAAAAAAAAAAAAAAAAAAAAAAAAAAAAAAAAAAAAAAAAAAAAAAAAAAAAAAAAAAAAAAAAAAAAAAAAAAAAAAAAAAAAAAAAAAAAAAAAAAAAAAAAAAAAAAAAAAAAAAAAAAAAAAAAAAAAAAAAAAAAAAAAAAAAAAAAAAAAAAAAAAAAAAAAAAAAAAAAAAAAAAAAAAAAAAAAAAAAAAAAAAAAAAAAAAAAAAAAAAAAAAAAAAAAAAAAAAAAAAAAAAAAAAAAAAAAAAAAAAAAAAAAAAAAAAAAAAAAAAAAAAAAAAAAAAAAAAAAAAAAAAAAAAAAAAAAAAAAAAAAAAAAAAAAAAAAAAAAAAAAAAAAAAAAAAAAAAAAAAAAAAAAAAAAAAAAAAAAAAAAAAAAAAAAAAAAAAAAAAAAAAAAAAAAAAAAAAAAAAAAAAAAAAAAAAAAAAAAAAAAAAAAAAAAAAAAAAAAAAAAAAAAAAAAAAAAAAAAAAAAAAAAAAAAAAAAAAAAAAAAICds2/uAACMdq3qutW1qxOqow7+87CD/7y8A9UnD/77J6vzqk9VZ1dnVecuOS8AC6SAB1gv165udXA5pbppdfPqxgeXG1RHLnifF1Yfqz5cnV59sPpA9f7qPdW7q3MWvE8AJlLAA8zjmtVdDi53qj6nukNDgb6OTq/eXr2tenP1poP/PG/OUAC7SAEPsHyHNxTpn1/du7pXdbuGLi+b7NLqHdVrq9dUr6recvC/A7AkCniAxTu8ulv1RdUDq/s39FvfBedUr6xeUf1d9foU9AALpYAHWIwbVl9WfWlD4X7deeOsjbOql1Z/fXD56LxxAADYZberfqD654anzAcsV7lcWr36YJvddkJ7AwDAaKdUP9TwEufcBfGmL2862Ja3HHMCAADg6ly7+o6Gvt37m7/w3bZlf/X/qu882NYAADDJg6pnVuc3f5G7K8sFB9v8C/KeFgAAh+Ba1ROqf2v+YnbXl7cdPBe7MoIPAAAj3KL6pers5i9cLZ+9nHPw3OgrDwBAd6+eXV3S/IXqXpezPmM5szrjM/73J9cg316XS6o/PXjOAHaW/oXArrpf9cPVQ+cOchXOqd5XnVp9sPrIweWM6mPVJxoK83Oqiw7xM69RHd/wsuiJ1fUOLjeqTqpuVt284ReJdX6h9G+qn2p4+RVgpyjggV1zn+onqy+eO8hn+Fj1xuotDX3v3169o+Ep+pxObBiv/fbVHao7H1xuOGeoy/nb6seqf5o7CAAAi3Wn6vnN3w3k/OoV1VOrRzQ87d40J1Vf0fAE/OXVuc3frs9vOMcAAGy4k6rfb76ZUi+oXlr9z4ZuO0cu93BncUR17+r7G7q2zDXs5qXVM6qTl3u4AAAswzHVjzbP0+H3V79SfWl17JKPcx0dXX1J9YvVu1p9+59X/Xi72fYAABvpEQ0vf66yaPzXhqLxrss/vI1zx4YXht/Yas/JqdUjV3B8AABMdOuGLhyrKhDfV/10Q4HKobldw43OKp/Mv6ThuwEAwJo4svrBVtP3+vzqD6sHZSSvvbpf9XvVp1r+ebug4T2EbXwHAQBgo9ytekPLLwDfVv3X1nts9E11fPW4VnMe31TdYzWHBQDAZzqyekp1ccsr9i6tXtAwZryn7avxgOrPWu7MuBc3zAVwjRUdEwDAzrtD9S8tr8C7sPrthv7azOMW1dMbRpRZ1nl+fd5fAABYuu9seX3dz63+d3XjlR0NV+f61c9UZ7ecc35+9T35hQXYIP7AAjbFdRpeePyqJXz2BdWvV0+rzljC5+/VCdVNq1MaJqa6cXWD6oYH/79rN/QjP+Iz/ln16eqt1bOqP2rolrKprls9seE9hGsu4fOfX31rddYSPhsAYOfcu2FypGX0hf6thqJ4HT2selW1v70f62uqG602/lJcv/ql6qIW/304tfr81R0KAMB2enzLKdaeX33OCo9jrKe1+GN+Y8MsqdvgltWftJibm89cPl197wqPAwBgaxxdPaPFF7FvbRhVZp09rsUf92XL96/wOFbhfi3nheZnVses8DgAADbaTRq6fCyyIDunoQ/1uk/kc0z1sZZXwL91dYeyMoc1vNz88RbbVv9SnbzC4wAA2Eh3rz7UYguxP29zCrGHt7zi/UBDl5NtfbJ8/YaXdRfZXh+p7rXKgwAA2CRf0TCU46KKr9OqR6z0CPbuSS23gD/QMFLNNntIi33p+fzqa1Z5AAAAm+C7W+zsm/+nYejBZTquekz1koabhdOrlzYMR3jEVWx3Vf5byy3eT5uYa9McX/1Gi3vJ9dKGLlgAADtvX8NEPYsqUM+ovnrJmW/bMEvoJ68ix2uaNiHUF17FZy5i+ZUJmTbZQ6oPt7j2+9+ZQwUA2GGHV7/b4oqrl7TcWVQfVL2g4WnsoeR5U+OHbTyiet8hfv7Y5azWd8z7ZTqx4T2IRbXjHzX9FxYAgI11jeo5Laagurh6csNoJIu2r/ryhgmVpmR78oR9PrzFj29+dsMNyC777oZZdxfRnn9ZHbXa+AAA8zm6emGLKaQ+2DAW+DI8rL2PMf6vE/f92BYzgdUF1R83THxE3a16d4v57r24Ona18QH04wNW75iGWVAXMZnS31ePqs5cwGd9pgdUT63uu4DP2t/wa8OlE7a9fcPES/+poWvQJxtelP1A9dGG4z7z4H//RMMIPhdXn2p4Ifji6l0NRTz/7toN3WAevoDPevnBzzl/AZ8FALB2jm7op76Ip5+/2OL7Id+m+osF5bts2d/6Tx61i/ZVP95iuiq9PE/iAYAtdFT1ovZeLF3UMEzjIh1fPa3FdFm5/PL2BWdlsR7RYuYeeEnjX1gGAFhbR7SYUUA+1tC9ZZG+tsUOM3j55SkLzsvi3b3FfAeen19bAIAtsK96Rnsvjt7TMP76oty8xb1Ie2XLqdUJC8zM8ty0enN7P+fPajmjIQEArMzPt/ei6HXVDRaUZ1/1XdU5C8h1VcsHq89dUGZW44Tq79r7uX/6qoMDACzKE9t7MfSyhj7qi3Byw9B/yyzcz2q4abnugjKzWke3mO5e/2PVwQEA9uqRHfqMpVe2PK/FTZbziOrje8xzVcsbqm9rGCaTzXZ49Yft7fuwv/q6VQcHAJjq3g3jYu+lAPqTFvNC4DHVb+4xy1UVaS+qvnABOVkvh1W/0d6+Hxe0vEnGAAAW5mbVae2t8Hlmw1PQvbp19cY9Zrmywv251V0XkJH1ta/61fb2XTmjOmXFuQEADtlx7b1g/r8tpnh/WMPspIsu3p9f3WUB+dgM+6pfa2/fmTdV11x1cACAq7OvenZ7K3Se295nV91X/XB7739/+eWfqvvvMRubaV/1u+3t+/Ocg58DALA29jrizN9U19hjhmPa+03E5ZcPVd+Q4mvXHd7wXsZevktGpgEA1sb9q0+3t6fbx+0xw/WrV+0hw+WXT1dPS9cH/t01qpc0/Tt1SfXglacGALicGzQ8pZ5a1Ly9OnGPGW5VvWsPGS6/vLq60x4zsZ2u2TCx2NTv1unVjVaeGgDgoMMaur7spZi5xR4z3OXg5yyicL+gelKLeYmW7XWj6n1N/569tOHaAQBYue9vehFzfsN48XtxvxY30sy/VHfYYx52xx2rTzb9+/ZDq48MAOy6u1cXNa142V89ao/7f3B17sT9Xz7L09r7C7Tsnoc09Guf8r37dHWv1UcGAHbV0dVbm140P2WP+39wdd4e9n/Zckb10D1mYbd9X9O/f+9o7y9vAwAckl9oetHygvbW//cBLebJ+6urk/eQAy7zf5r+PfyVGfICADvm/k2fJOld1bX3sO/Pq86euO/PXJ5RHbWHHPCZjmn6DMT7qy9YeWIAYGcc0/Cz/5RC5YLqrnvY9+2rMyfu+7LlkoYuD7Bot276zeV7qmNXHxkA2AVPbXrx/J172O/J1Qf2sO8DDd1uHr6HDHB1Htn07+fPz5AXANhyd2r6bKt/tof9Xqt688T9XrZ8tKH7DSzbbzX916G7z5AXANhSh1Wvalph8sHqOhP3e0T14on7vWw5tbrtxP3DWMdWb2vad/U1meAJAFiQxzStILm0+qI97PfXJu73suWd1c32sH+Y4p5N/7VqL13NAACq4en5GU0rRp6+h/1+x8R9Xra8rbrxHvYPe/FjTfvefqw6cYa8AMAW+aWmFSLvavrIGvepLpy43wMNI+Uo3pnTkdXrm/b9/bUZ8gIAW+J2TesKsL960MR9Xr+h3/zU4v19maCJ9XC36uLGf4cvru44Q14AYAv8RdOK6N+auL/DqpdM3OeBhtFmbjNx37AMU4defeEcYQGAzfaAphUepzd9ttUfmLjPA9U5GYaP9XNMw0RNU77TD54hLwCwwV7ZtKLjGyfu7/OaPnLHxdVDJu4Xlu3Lmva9/udq3wx5AYANNLXgeEXTCo5jq7dP3OeB6nET9gmr9Lymfbe/co6wAMBm2Ve9rvGFxiXVXSfu85cn7O+y5Zcn7hNW6VZNG1npTZncCQC4Gg9rWiH9OxP396CGCZ+m7PPvGmZrhU3wc037nj9ijrAAwOZ4TeMLjE9VN5qwr2MaxoufUtR8qLrBhH3CXE5o2qRob0hfeADgSvynphXTPz5xfz87cX8XV/efuE+Y0/c27Tv/sDnCAgDr72WNLyw+Wh0/YV93bPqoMz805eBgDVyjYbKxsd/5V84RFgBYb/dsWjH9xAn72lf9/cT9/V1e6mOz/ZemfffvO0NWAGCN/d/GFxQfaejHPtajJuzrQPXJ6mZTDg7WyBHVOxv//X/OHGEBgPV0UtO6s0x5+n5M9f4J+zpQfduE/cE6+pbGf/8vqW4+R1gAYP38ZOOLiTOr4ybs6wcn7OtA9aJJRwbr6YjqvY2/Dn5ujrAAwHq5RnV64wuJH52wrxMbusGM3den0nWG7fP4pt04Hz1HWABgfXxt44uI86rrTdjX/5qwrwPV9006MlhvxzRtXPhvnCMsALA+Xtr4AuJXJ+znxtX5E/b15sy2yvb6icZfE/8wS1IAYC2cUl3auOLh0uq2E/b1iyP3c9nyBRP2BZviRtWFjbsm9jftGgQAtsCPN76gfuGE/Vy/odvN2H0ZNo9d8H8af2389CxJAYBZ7WvaKBhTpnT/6Qn7uai61aQjg81y38ZfHx/IhGYAsHPu1/ii4dTq8JH7Ob46a8K+fmXykcHmeXPjr5EHz5IUAJjNrza+YJgydOR/nbCf8xr6BsOueELjr5PfniUpADCLwxs/9vuljZ8F8rDqXSP3c6D6+clHBpvpxMa/zPrx6sg5wgIAq/cFjS+qXzZhP18+YT/nVzecdFSw2Z7T+OvlIbMkBWblBRjYTV89YZtnTtjmuyZs8/vVRydsB5tuyjU25VoGADbMvoYRLMY85buwuvbI/ZxcXTJyPxdXt5h8ZLDZjqo+0bhr5rQ8jAOArXfXxv9M/xcT9vMjE/bzJxOPCbbFMxp/3dxnlqTAbNy1w+6ZMo772AmV9lXfMmE/T5+wDWyTP5uwzZcvPAUAsFZe2binexdVJ4zcx5Qx5l+/h2OCbXFUdXbjrp3XzpIUAFiJExr6mY8pDl48YT9Txpj/zonHBNvm2Y27di6trj9LUgBg6f5z4wvrJ4zcx5Qx5s+trjX9sGCrfEPjr9OvmyUpMAt94GG3fNGEbV44cv0HNH4c9z+vzhm5DWyrFzc8VR/jwcsIAgDM7y2Ne6r3zgn7+KWR+zhQfcnUA4It9eqWf60CAGvuxGp/44qCX5uwn/eM3MfpDd1ugH/3lMbfCN94lqTAyulCA7vjvg3DO47xspHr36G65chtntP47gKw7V4+YZv7LTwFsJYU8LA77jty/QPVP4zc5ktHrl/13AnbwLZ7dcMMyGOMvcYBgDX38sb9HP+WCfv4m5H7+Hh1xNQDgi33isZdT6+aJyawap7Aw244rLrnyG3+ceT6RzWMQDPGi6pLRm4Du2LsNXjX6shlBAHWiwIedsNtq+NHbvNPI9e/V3XsyG1eNHJ92CVjr8FjGt5DAbacAh52w90mbPPPI9d/4Mj191cvHbkN7JKx12BNu9aBDaOAh91wl5Hrn129a+Q2Y1+ge3N15shtYJd8rHrfyG3uvIwgwHpRwMNuuOPI9d/Q8FLcodpX3WfkPv5u5Pqwi14/cn0FPOwABTzshs8duf4bRq5/q+q6I7cZO0Ql7KI3jlx/7M06sIEU8LD9jq1uPnKbN49c/+4j16/xL+jBLhp7Ld6ous4yggDrQwEP2+82jZ+B9a0j17/ryPXfV3105Dawi/5twja3XXgKYK0o4GH73Xrk+geqt4/cZmy/29eNXB921fsaPyPr2Gse2DAKeNh+txq5/unVp0ZuM+UlWeDqXVq9e+Q2Y695YMMo4GH7nTJy/bHFwjHVzUZu86aR68Mue8/I9U9ZRghgfSjgYfuNfYF1bLFwm8b/WTKlXy/sqveOXH/sDTWwYRTwsP1uOnL9U0euP7a/7QXVB0ZuA7vs/SPXH3vNAxtGAQ/b7yYj1x9bXN9i5PrvqvaP3AZ22dhr8qSlpADWhgIettuRjZ9g6cMj1x/7c/3YLjqw6z40cv3jqmstIwiwHhTwsN2u3/gx4D8ycv2TR67//pHrw647bcI2N1h4CmBtHDF3AGCprjdhmzNGrn/jket/cOT6HLprVUdVx1/uv3+quqg6Z+WJWIQzGuZnGHMzfr3GjygFbAgFPGy3sd1nDlQfH7nN2Cd9Y5/wMziuukPDLJu3bRgq8KbVjRrOwYmH8BkHqrMaCsLTG26m3tfwXsI7GkYHOn/Budm7i6tPVtcZsc3Yax/YIAp42G5j/xI/p7pk5DZjn/J/dOT6u+jwhtlt71/dq7pHdbv23u1xX0Ohf2J1+yv4/y+t3tkwU+5rqldWb85Lx+vgrMYV8GPWBTaMAh6229gX2T45cv0jJuxj7BP+XXFS9eXVQ6sHV9eeIcPhDYX97atvOvjfPlG9vHpx9cL8gjKXsdfmCUtJAawFBTxst2uOXP/cketfq/EvySrg/93Nqq+rvqa6Z+PbchWuUz3i4HKgem31nOrZeZ9hlca+vzD22gc2iAIetttxI9f/1Mj1L/+y5KE4e8I22+TY6pHVt1YPaLNGA9vX0KXnXtVTq3+onlH9WcMEXSzPeSPXP3YpKYC1sEl/cQDjHT1y/bEvMB4zcv0DE/axLW5Z/e+GMb3/oHpQm/1n8GHVF1R/2DB3wM83flIvDt3YG6Sx1z6wQTb5Lw/g6l1j5PoXjVx/bJFwUUMRv0vu3vCE+p3VE9vOlwuvU/33htFs/rS627xxttLYa3PstQ9sEAU8bLcjR67/6SV//tgiZJPdvXpB9S8NfdwPnzfOShze0D3oX6rnp5BfpItHrq+LLGwxBTxst7HX+NjhAsd+/tghKjfRLas/bhiK8WEzZ5nLvurhDYX8H6drzSJcOnL9XbhhhJ2lgAc+09juLWML/m0eT/y46mcbJkP6utZzRJlV29fQFv9W/XTjX6pmul3rqgY7RQEP223sX+Jji86xwwi+f+T6m+IrqrdVP1AdNXOWdXR09UMNhfzDZ86yqcZemwp42GIKeNhuy+43e3rDuOCH6q9Gfv66u17DeOjPq246c5ZNcLOGvvF/3PgZfHfd2GtzbJcbYIN4yQW227JfSq36sepFh7DemdWvTvj8dfXw6neqG654v+dWb2144v+e6tSG2VHPaJg19byGSX8uK+AOb5hw67iG0WJuUN2kOqW6VcOsq3dotRP/fF3DEJSPbZjdlas39pedsdc+ALAmfrDhp/RDXf5+4n5+9Go+91PVAyd+9ro5qvqVhv78Y9p26vLW6teqb6hu13J+OT3s4Gd/Y/XrDV1dVnFs+6tfTrejQ/EXjWvbp8wTEwDYq//WuL/0x3SHubxHNTwRvvxn/m11xz187jo5pWF0mWUWtRc0dDN5bMOT8rmcVH17w1CYF7TcY35NdfPVHNbGenHj2vQH5okJAOzVYxv3l/7b9ri/wxrG/v6a6isb+jxviy+sPtZyCthLG250vqk6flUHNMK1qm+uXtqQdRltcGb14FUd0AZ6VePa83vmiQkA7NWjGveX/kfmibn2vrPhheBlFK0/2/Bkf1Pconpqy7mZ+XT1uNUdykZ5a+Pa8pvniQkA7NVDGveX/oXzxFxb+6qfa/GF6rsbbgqOWd2hLNyx1XdX723x7fPUjKN/eR9pXBt+xTwxAYC9umfji6dVjkayzo6o/rDFFqbvr7617RoB7MjqMdUHWmxbPSOziV5mX3VR49rvfrMkBQD27JTGF063nCPomjmyek6LK0Y/UT2p7R5t5ejqf1Rnt7h2+9OmDW26ba7d+Lb7nFmSAgB7dlzj/+K/7yxJ18dh1XNbTAG6v+Ep/qrHip/Tjatntbgi/s/brl8spvicxrfbdWdJCgAsxNgnoo+YJ+ba+K4WU3i+r/riFWdfJ/+pocvQItryx1eafP18YePa68K8QwAAG+1tjfvL/7/NE3NtvKu9F5y/23oOB7lq12roy77X9jyvYRbZXfXNjWuv98+SEliZZczoB6yXD49c/+ZLSbEZTq5uvYftz64e2TD+/qcWkmizndPw0u6jD/77VMc2PNHfVWOvyQ8uJQWwNhTwsP1OHbn+LZaSYjOcuIdt39Iw6s9zFpRlmzy7+ryGscyn2uWXq8dekx9YSgpgbez6i0GwC94/cv29PIHedB+duN3zqm+szl1gljGuXZ1U3aDhJuTYhlFhqi6ozm+YeOnM6kPt7Wn4VO+sPr/hBdeHT9j+/MXG2Si3Grn+2Jt2AGDNfGPj+s+e327/OvevjWuvX2y17XWHhnHXf6N6VXXWyLwHGor5f6h+tfqW6jYrzH949csTMu/yuOZjJ3F6zDwxAYBFuU/ji6VT5gi6Jr6pQ2uj/Q3jni/bsdVXV39QnXaI2aYsH6h+u3pYqxmv/odGZPvXdvem8oTGn8sHzZIUAFiY6zS+APiyWZKuj6ubgXV/9fglZ/iC6o8auuUsq2i/suWT1e803Pwt0xMa2vKqslzUbs9N8PmNP383niUpALBQpzeuAHjyPDHXxmHVjzZ0J7p823yk5Y2Vf1T1uMZ341nm8vqGYQyXNSPqtzQME3lF+/5Y9aVL2u+m+PbGna+z5okJACzayxpXBDxrnphr58SG4vUnGwr6h7ec7iXXaHga/eHmL9ivbHlv9W0tZ/CDk6qnVH9fvan624buSWYTHd5TGHOeXjlPTABg0X6pcUXAv80Tcyd9dfWe5i/QD3V5a7s9Jvuqvapx5+c354kJACzaYxpXBFySmUSX7ZTqb5q/IJ+6/Fl1o0U3Cp/l8K68e9GVLd89S1IAYOHu3vgC7QvmCLojvr1hLPa5i/C9Lh+vvnbBbcO/u3Pjz8nnz5IUAFi4a1QXNq4QWMUQibvmhIaZWucuvBe9PKNhuEsW63GNOw+X5DwAwFZ5TeOKgRfME3NrfU7DbKRzF9vLWt5Q3XxhrUVd/XCml1/eNE9MAGBZxs5++fF2d/KcRfvihrHV5y6yl718tOWPHb9L3tu49v+deWICAMvy6MYXZHedJel2eWTDZESrKKDPaxjR5nWXW97X+Jchpy7nVg9ZSMvttps1vu2/bZakAMDSTCkIvm+WpNvj6xv6JS+jUP5Q9czqe6r7V9c/hDzXrx7QMOb8sxompVpGtgurh41oJ/6jb2l8u992lqQAwFK9r3EFwYvmibkV7ldd3GIL4/c2THh0twVl3Hfws36q8d+Nq1vOr+60oJy76JmNa+/T5okJACzbHzSuKDivOnqOoFvgtS2mEN5fvbBh8qRlvpNwWEPXl78+uM9FZP/rJebdZvuq0xvX1n88S1IAYOm+ufFF2ENnSbrZbtdiCuAXNs97CPdoKL73mv/SDq1rD5/tno1v62+fJSkAsHQ3afzT1V+ZJelm+6r2Vvi+s+GJ+9weWr27vR3LA1eeevP9WOPb+ZazJAUAVuJNjSsM3t/wkz6H7j83rdjdX/1idczqI1+pYxuGIJ3arUYBP97rGtfG75onJgCwKk9rfBF291mSbq7bNr6NP9Z6d1d6WHVW445JF5rxbt74m6Wnz5IUAFiZBza+uPyZWZJutjFPUd9W3XqemKPcunpHh35cL54n5kZ7YuOvz3W+8QMAFuCIhqe9fqJfrgd0aMNIvqY6caaMU1yvQxth54LqzjNl3GSvbty1eU511CxJAYCV+oPGP+W75xxBN9w3NExqdGVt+vLqhNnSTXdCQ/YrO65PVQ+fLd3mumXju8/86SxJAYCV+4rGF/C/OEvSzXeHhllPz25ox0ur11ePqw6fMddeHV49tuEXhMt+aTit+s3qlPlibbQfbvx1+ehZkgIAK3d0w0/vYwqF06sj5wi7Ra7Tdk6MdXh13NwhNty+xr1fcKBhttvj5wgLAMxj7FTtB6qvnCUpbL/7Nf56fM4sSYHZHTF3AGA2z27ooz3GY6rnLSELe3d4dZvq9tXJDeO31/CU9kMNI928s6GPNevnMRO2efbCUwAAa+3I6szGPfG7uDppjrBcoaOrr6+eW32yqz9/n2h4avvotrMrz6Y6oTq3cdfiJ3IOAWAnPb3xP9v/+FJu9cQAABacSURBVBxB+SzXrp5Sfbzx5++y5WPVT7SZo+Bsmyc0/vz99ixJAYDZ3a3xhcOH8zLrnP5L4385uarljOqbV3kAfJZ91dsbf97uO0dYAGA9vL7xxcPXz5J0t12r+vMWV7hffnnOwX2wWg9t/Ln6t1mSAgBr47saX0C8dpaku+uk6l9bXvF+2fLmvOOwai9p/Hl64ixJAYC1ca2GmTPHFhEPmiPsDrpmwxPXZRfvly1vzZjuq3KXxs+8en513TnCAgDr5TcbX+i9aJaku+cnW13xftnyEys5Mp7V+HPzB3MEBQDWz+c2/kng/oaXYFmefdVprb6A//DBfbM8t64uafy5ueccYQGA9fS3jS8mnjtL0t1xcqsv3i9bbrKC49tlv9/4c/KPsyQFANbWlza+oNjf0I+X5bh18xXwt1zB8e2qW1Wfbvw5+ao5wgIA62tf00Y6ed4cYXfE0dVFrb54v7C6xgqOb1f9QePPyTuqw2bICgCsuW9qWsFnUpnl+cvGnYtPNdxU/a/q56vnV+eO/Iy/WMmR7abbN63v+2PnCAsArL8jqvc2vrjQN3d57tKhPYX/dPVj1fFX8BnXahhZ5lC6bVxU3XlpR8PzGn99fag6ao6wAMBm+I6mPYXXP3d5vqG6uCtv+7OrLzyEz/mi6pyr+JxPZ5bdZXpQ066tJ8wRFgDYHEc27Sn8e/KUcJnuXb2izx7u8+KGkYBuNeJzblP9eZ99Q7C/+ruD+2A5DmuYwXjsdfWR6pgZ8gIAG+axTXtS+OQ5wu6YGzU8yb1/dcIePueEg5/xwOqGC8jFVXtM066p75kjLACweY6o3tn4YuOcjB8Ol3ed6qONv57el9GAAIARHtW0J4Z/PEdYWGO/3rRr6VvmCAsAbK591T83rfB4yAx5YR3du7q08dfQG6vDZ8gLAGy4BzStgH9vddwMeWGdHFm9qWnX0BfPkBcA2BLPaVoB8otzhIU18j+bdu28YI6wAMD2uEV1fuOLkEur+82QF9bBnaoLG3/dXNgw1CcAwJ78eNOeJL4rXWnYPUdWr2/aNfOzM+QFALbQ0dW7m1aQ/MYMeWFOP920a+X9ueEFABboIU0rSvZXXzFDXpjDA6tLmnatuE4AgIV7VtMKkzOrk2bIC6t03erUpl0jz50hLwCwA27QUIxPKVBe0TDDK2yjfdXzmnZtfCIzGAMAS/T1TStSvKDHNntS06+Lx8yQFwDYMX/R9P7wXzlDXlimB1UXN+2a+OuGp/cAAEt1g+qjTStYzq4+Z/WRYSluUZ3etGvh4+k6AwCs0MOb3mXgHdW1Vx95a12venT19OplDe172sHl7dVLq1+uvq46caaM2+iE6t+afh08avWRAYBd9xtNL15ekpda92Jf9bDqRY0btvDi6oXVl6Xrxl4c1tCOU7//f7DyxAAA1THVW5pexDx99ZG3woOqf2l6u1+2vLa6/4qzb4upkzUdqN5ZHb/6yAAAgztU5za9mPm21UfeWEdXv97wMvBei/fLlv0N3WuOWuFxbLqvavo5uKC62+ojAwB8tm9uegF5YXWv1UfeODeqXtPiCvfLL69ueDmZq3br6pNNb+fHrT4yAMAV+82mFzWnNryIyRW7SUO3i2UV75ct76huvKJj2kTHVG9oevv+0eojAwBcuaOqf2p6cfPihhcD+WzHV29u+cX7Zcsbq2uu5Mg2z15uUt9QHbv6yAAAV+0m1UeaXuT8yOojr71nt7ri/bLlj1dyZJvlkU1vzzMbxosHAFhL9254UW9KoXNJ9cDVR15bj271xftlizHK/93Nq080rR0/ne80ALABHt30UTo+WF139ZHXznHt7deMvS4fSpePGrp1vaLp7fhdq48MADDNzzS96HnODHnXzfc3X/F+2fLEpR/l+nty09vv92fICwAw2WENs4ROLX7+y8oTr4/Dqw80fwH/vnb7xeI7NwxzOqXtXt8wbj8AwEa5bvXephVAZzf0Pd5FX9L0ovst1Q9WD68eVv1QexvF5sFLPtZ1dWRDET6lzT5R3Wr1kQEAFuPuTX+p9WXVvtVHnt3TG99WFzZMEnRF7bWvoS/2RRM+9xeWcHyb4MeaftPz1TPkBQBYqO9qejG0iy8BvrFxbbS/QysapwyF+LoFHdMmuWPTbnYOVL8+Q14AgKX4s6YVROdUN5sh71yObHzx+MwRn/8nIz/7ooY++bvisOpVTfuuvqVhtlYAgK1w7er9TSuMXrj6uLO5RePb5z4jPv8BEz7/pns8pk3y+KZ9Ry+s7jJDXgCApXpgw2RNUwqkr50h7xzu0fgn5EeM+Pwjq4tH7uOuezymTXGj6pNN+37+9xnyAgCsxFObViB9pDphhryrdp/GtctZE/Zx9sh93HPy0WyWZzbtu/kP7fZwmwDAljuq6cMa/vIMeVftTo1rk0ura474/BMaP0vuHfZ4TJvgAU2bPfi86tYz5AUAWKm7N74bx4GD22x7P+MbNL5dxgxbOGUkmuvu8ZjW3eHVG5p2U/l9M+QFAJjFTzWtYHpF2z82/FmNa5PXdWj94I9o/OREZy7omNbZdzbtu/jP7dYIPQDAjjuqelvTCqdHzpB3lV7S+Db51a76xmZfwxjlYz/3rxd6ZOvnhOqMxrfLp6s7z5AXAGBWD2xav+P3NtwAbKsnNe3G5i8bhqG8vFtVL5j4mU9awvGtk6kvVf+vOcICAKyD32taAbXNw/bdomk3NgcaXmp9ZfW7B5dXHfxvUz/r5ks+1jndtLqg8e3ywca9OAwAsFWuV3288UXUx6vrzJB3VaZ0o1n0su3dZ36/ae2y7V24AACu1tSXCJ86R9gV+eLmL+AftPSjnM8dmjap2N/PkBUAYO1MHcbvvOrGM+Rdlb9pvuL9r1ZwfHP608a3ySVt/zCmAACH7EFNKzSfPkfYFbll9alWX7yfXZ2y/MObzZ2b9l7Ab88RFgBgnT238UXVBdXJc4RdkW9q9QX8o1dyZPN5TuPb5FPVjeYICwCwzm7bML62p/Cf7adbXfH+lBUd01zu2LSn7z8xR1gAgE3wG017Cr/tT0ef1vKL959d2dHM51mNb5czq+PnCAsAsAlu3PBy6tgi62lzhF2xx1cXtfjC/cKGkYC23a2aNvLME+cICwCwSaY8bT67uvYcYVfsHtWbW1zx/sbqbis9gvn8WuPb50PV0XOEBQDYJNdr2ugrT54j7AyOaHhifmrTC/f3V99x8LN2wfWa9svOE+YICwCwiZ7atKelR84RdiZHVF/f+Hb6+nancL/MjzS+nT6Sp+8AAIfsBk17Yvr1c4Sd0XUb30YnzpJ0PtdoKMbHttOT5ggLALDJfrnxRderZ0k6HwX81ZvyK8VZGXkGAGC0m1cXN774+rw5ws5EAX/1XtX4NvqpWZICAGyBZza++Pq9WZLOQwF/1e7a+Pa5sO2fVwAAYGnu0fgC7Lx2Y0jJUsBfnSkTg/3+LEkBALbIPza+CHv8LElXTwF/5Y5rmB9gbPvceY6wAADb5JGNL8JeP0vS1VPAX7lvaXzbvGKWpAAAW+bI6sONL8buOkfYFVPAX7m/b3zbPGqOoAAA2+gnGl+M/cIsSVdLAX/FblHtb1y7nNZuTQQGALBUN6suaXxBdvgcYVdIAX/Fpsy8+rOzJAUA2GJ/3fii7EtmSbo6Cvgr9vbGtcn+6jazJAUA2GKPanyxuu1jwivg/6O7N75N/nGWpAAAW+7ohinuxxRmH2+7+zUr4P+jn2t8mzx2lqQAADvgtxpfnD10lqSroYD/bPuq9zauPc6vTpgjLMAUh80dAGCkZ03Y5qsWnoJ1dbeGEWjGeEHDhE8AACzBYdWHGveE9bS294GFJ/Cf7Scb3x5u8AAAluyXGl+kff4sSZdPAf/Z3tK4tji74d0KgI2xrU+kgO323AnbfPnCU7BuTqk+d+Q2L6wuXHwUgOVRwAOb6FXVGSO3UcBvvynn+M8XngIAgCv0u43rKrG/utEsSZdLF5p/91eNa4cLquNmSQqwB57AA5vqr0auv6/tn5V1lx1VPXjkNi+rzltCFoClUsADm+ql1UUjt/niZQRhLdy/OnbkNi9cRhCAZVPAA5vq3OofR27zhcsIwlqYcnP2ooWnAFgBBTywyV4ycv2Tq1svIwizG9t95h3VqcsIArBsCnhgk/3thG0euPAUzO346h4jt3nxMoIArIICHthkb64+NnKb+y8jCLO6X3XEyG1euowgAKuggAc22f7qH0Zuc99lBGFWY2/KLm389wZgbSjggU03thC7bds7DvquGntT9obq7GUEAVgFBTyw6V45cv191b2WEYRZHF593shtPH0HNpoCHth0b2r8ZDxjCz7W1+dW1xy5zauWEQRgVRTwwKa7pPqXkduMHbGE9TXlXP6/hacAWCEFPLANXjNy/bstJQVzGPtryvur05eQA2BlFPDANnjdyPVvWl13GUFYubE3Y2Nv9gDWjgIe2AZvmLDNnRaeglU7vPHncezNHsDaUcAD2+Dd1bkjt7njMoKwUrepjh25zRuXEQRglRTwwDbYX7115Da3X0YQVmrKTdibFp4CYMUU8MC2eMvI9RXwm+8OI9c/rTpjGUEAVkkBD2yLfxu5/m2WkoJVGlvAv3kpKQBWTAEPbIt3jFz/5OroZQRhZW47cv23LSUFwIop4IFt8c6R6x9WnbKEHKzO2F9R3r6UFAArpoAHtsWpDbOyjnHKEnKwGjesjh+5zdibPIC1pIAHtsXF1QdHbnPzZQRhJW4xYZt3LTwFwAwU8MA2ed/I9W+6lBSswtibrwuqDy8jCMCqKeCBbTL2CfxJS0nBKpwycv1TqwNLyAGwcgp4YJt8aOT6N15KClbh5JHrn7qUFAAzUMAD2+QjI9e/0VJSsApjfz0Ze3MHsLYU8MA2OX3k+jdYSgpWYeyvJ/q/A1tDAQ9skzNGrn/iUlKwCmN/PRl7cwewthTwwDY5c+T612j8WOKsh7G/npy2lBQAM1DAA9vkrAnbXGfhKVi2Y6pjR24z9tcZgLWlgAe2yScnbHOthadg2aZ0ffrYwlMAzEQBD2yTi6vzR26jC83mmfKryZRfZwDWkgIe2Dbnjlz/uKWkYJmm/Gpy9sJTAMxEAQ9sm/NGrj+2LzXzG1vAX9Dw6wzAVlDAA9vmgpHrH72UFCzT2JuuTy0lBcBMjpg7AMCCfXrk+k+tnryMICsy5c/xl1WXLDrICl135Ppj34sAWGsKeGDbjO0qcYuDyy65y9wBVmzsrzIAa00XGmDbXDp3ANbORXMHAFgkBTywbQ7MHYC1s8ndhQD+AwU8sG32zR2AtbN/7gAAi6SAB7aNAh6AraaAB7aNp61cnvcigK2igAe2zQfmDsDaef/cAQAWSQEPbJu/mjsAa8d3Atgq+ooC2+bI6o3VHeYOwlr41+rujZ8fAGBteQIPbJuLq6+pPjp3EGZ3evXIFO8AABvh5OpPG8YAP2DZqeWS6k+qkwLYQrrQANvuBtXnVT9V3XXEds+o/nopiThUD62+bcT6b6x+uHptdcZSEgEAsDIvatxT3O+dJyaf4QmNO2duuICdoA88AABsEAU8AABsEAU8AABsEAU8AABsEAU8AABsEAU8AABsEAU8AABsEAU8AABsEAU8AABsEAU8AABskCPmDgCwpr6oOmbuEDvuvnMHAFhHCniAK/YVBxcAWCu60AAAwAZRwAMAwAZRwAMAwAZRwAMAwAZRwAMAwAZRwAMAwAZRwAMAwAZRwAMAwAZRwAMAwAZRwAMAwAY5Yu4AAGvqjdW75g6x425d3W3uEADrRgEPcMWeUT197hA77gkp4AH+A11oAABggyjgAQBggyjgAQBggyjgAQBggyjgAQBggyjgAQBggyjgAQBggyjgAQBggyjgAQBggyjgAQBggxwxdwCANXXT6h5zh9hxN507AMA6UsADXLEnHVwAYK3oQgMAABtEAQ8AABtEAQ8AABtEAQ8AABtEAQ8AABtEAQ/sigNzB2DpLp07AMAqKOCBXXH+3AFYOucY2AkKeGBXfGLuACzdWXMHAFgFBTywKz4ydwCW7sNzBwBYBQU8sCvePXcAlu49cwcAWIUj5g4AsCL/OmGbC6sLFh2EQ3JMdfTIbaacYwAA1tSRDS85HhixvHSWpFS9vHHn6tw8lAIA2Dpji8L91R1nSbrb7tTQ9mPO1UtmSQowA33ggV3yNyPX31f96DKCcJV+rKHtx3jxMoIAADCv2zbuqe5lT+EfOEfYHfVFjT9HB6pbzhEWAIDle03ji8N3VcfPEXbHXKt6b+PPzz/NERYAgNV4bNOe8D433Q6X6bDqeU07N4+ZIS8AACtybHVm0wrFX21832yu3r7qN5p2Tj7aMOQkAABb7H82rVg8UP1Ow5CULMaR1e83/Xz8j9VHBgBg1a5Zndb0ovEV1ckrT719blr9Q9PPw4er41aeGgCAWXxr0wvHA9Unq8dn8qApjqy+tzq7vZ2Db1p1cAAA5rOv8RM7XdHy7uq7qhNWG38jndBw0/Oe9t7uL837CAAAO+eUhifpey0mD1TnV39ZPaG6d3Wd1R3G2rpOdZ+GNvnL6oIW09ZnNXS/AdhJnl4Au+6rq+e0nD8PL2woWnfRsdVRS/jcA9V/rp6/hM8GAGBD/ESLeTJsWf7yI1dyDgEA2CH7qt9r/uLUctXLb+eXYwAADjq8+qPmL1ItV7z84cFzBAAA/7/Dqqc3f7Fq+ezlFw6eGwAAuEKPrz7d/IXrri8XVY+7mnMFAADVMBTku5u/iN3V5Z3VPa/2LAEAwGe4ZvVL1SXNX9DuynJxQ5eZ4w7h/AAAwBW6U/Wi5i9ut315YfW5h3hOAADgat2nem6eyC9yuaT6s+peI84DAACMclL15Op11f7mL4I3bdlfvbb6/uomI9seYOeZEANgb25cfVH1+dVdq9tVJ86aaP18vHp79cbqn6qXV6fNmghggyngARbvuOqG1XXmDjKzs6ozqvPmDgIAAAAAAAAAAAAAAAAAAAAAAAAAAAAAAAAAAAAAAAAAAAAAAAAAAAAAAAAAAAAAAAAAAAAAAAAAAAAAAAAAAAAAAAAAAAAAAAAAAAAAAAAAAAAAAAAAAAAAAAAAAAAAAAAAAAAAAAAAAAAAAAAAAAAAAAAAAAAAAAAAAAAAAAAAAAAAAAAAAAAAAAAAAAAAAAAAAAAAAAAAAAAAAAAAAAAAAAAAAAAAAAAAAAAAAAAAAAAAAAAAAAAAAAAAAAAAAAAAAAAAAAAAAAAAAAAAAAAAAAAAAAAAAAAAAAAAAAAAAAAAAAAAAAAAAAAAAAAAAAAAAAAAAAAAAAAAAAAAAAAAAAAAAAAAAAAAAAAAAAAAAAAAAAAAAAAAAAAAAAAAAAAAAAAAAAAAAAAAAAAAAAAAAAAAAAAAAAAAAAAAAAAAAAAAAAAAAAAAAAAAAAAAAAAAAAAAAAAAAAAAAAAAAAAAAAAAAAAAAAAAAAAAAAAAAAAAAAAAAAAAAAAAAAAAAAAAAAAAAAAAAAAAAAAAAAAAAAAAAAAAAAAAAAAAAAAAAAAAAAAAAAAAAAAAAAAAAAAAAAAAAAAAAAAAAAAAAAAAAAAAAAAAAAAAAAAAAAAAAAAAAAAAAAAAAAAAAAAAAAAAAAAAAAAAAAAAAAAAAAAAAAAAAPD/tQcHJAAAAACC/r9uR6ACAAAAAAAAAAAAAAAAAAAAAAAAAAAAAAAAAAAAAAAAAAAAAAAAAAAAAAAAAACwFu51lFasOm/FAAAAAElFTkSuQmCC;clipPath=inset(23.33% 31.67% 23.33% 31.67%);" vertex="1" parent="1">
          <mxGeometry x="386.25" y="500" width="27.5" height="40" as="geometry" />
        </mxCell>
        <mxCell id="KsdpnjuKP9ndE49-Ah95-2" value="Button" style="shape=image;verticalLabelPosition=bottom;labelBackgroundColor=default;verticalAlign=top;aspect=fixed;imageAspect=0;image=data:image/png,iVBORw0KGgoAAAANSUhEUgAAAvAAAALwCAYAAADxpkF6AAAABmJLR0QA/wD/AP+gvaeTAAASw0lEQVR4nO3dW6xl9wDH8d9Mpw/aaXVGiyqRaNCmKBqXIK4PoqpEBA/iBfFCXF68ColLvCGoBHVLXF+IvjFuiVtL65YMb0hHtZR2OhKdznhYjWvVWfvM7n/99v58kvO2cvLLSc7a3+y91toJAAAAAAAAAAAAAAAAAAAAAAAAAAAAAAAAAAAAAAAAAAAAAAAAAAAAAAAAAAAAAAAAAAAAAAAAAAAAAAAAAAAAAAAAAAAAAAAAAAAAAAAAAAAAAAAAAAAAAAAAAAAAAAAAAAAAAAAAAAAAAAAAAAAAAAAAAAAAAAAAAAAAAAAAAAAAAAAAAAAAAAAAAAAAAAAAAAAAAAAAAAAAAAAAAAAAAAAAAAAAAAAAAAAAAAAAAAAAAAAAAAAAAAAAAAAAAAAAAAAAAAAAAAAAAAAAAAAAAAAAAAAAAAAAAAAAAAAAAAAAAAAAAAAAAAAAAAAAAAAAAAAAAAAAAAAAAAAAAAAAAAAAAAAAAAAAAAAAAAAAAAAAAAAAAAAAAAAAAAAAAAAAAAAAAAAAAAAAAAAAAAAAAAAAAAAAAAAAAAAAAAAAAAAAAAAAAAAAAAAAAAAAAAAAAAAAAAAAAAAAAAAAAAAAAAAAAAAAAAAAAAAAAAAAAAAAAAAAAAAAAAAAAAAAAAAAAAAAAAAAAAAAAAAAAAAAAAAAAAAAAAAAAAAAAAAAAAAAAAAAAAAAAAAAAAAAAAAAAAAAAAD3nT2jBwCn3MEklyV5dJJHJdl/9w+wHY7e/fOrJIeTXJfkT0MXAaeUgIfNcFGSVyW5PMmlSfaOnQMsyIkk1ye5JslnMkU9UEzAQ689Sa5I8rYkTx+8Bejx3STvTfK1JCcHbwFWIOCh09OSfDDJE0YPAWpdl+SNSb43eggwj4/ZocsZSa7K9A6aeAd247JM55IPJ7nf4C3ADN6Bhx4XJ/likktGDwE2zs+TvCyuj4cKAh46PDnT9arnjh4CbKxbk1yZ6V15YMEEPCzfc5N8NdPlMwDrdCzTzfGHRg8B/jcBD8v2uCTfSnLO6CHA1rgtyXOS/Hj0EOCeCXhYrgdmenbz+aOHAFvnd5lulL9l9BDgv3kKDSzT3kxfuCLegREemuRT8UYfLJJ/TFim1yf5yC5/x01JvpnkxiS/TXLHLn8fsHxnJnlYkockeXaSB+3y9702ycd2+TsAYOOdl+SPmb4hce7P8SSfyPRFTz5hg+22N9O54BNJ7spq55Sbkzzgvh4OAG3el9VeaA8lecyAvcDyPTbTDfGrnFvePWAvANQ4mOkJEHNfYK9KcvqAvUCPfUnek/nnl78kOTBgLwBUeGvmv7i+fcRQoNY7Mv8886YhSwGgwPWZ96L6pbgZHZhnT5LPZd655tohSwFg4R6ZeS+oR5LsH7IUaHdWkt9n3jnnwiFLgf/iKRWwHM+befzbkxxdww5g892e6VKaOZ67jiEA0Oyz2fk7YTfGTavA7pye6ZO8nZ53Pj1mJvCfvAMPyzHnEZBfSXLnuoYAW+HOJF+dcfwl6xoCAI32JjmWnb8T9sIxM4ENc0V2ft45GjfNA8A/nJN5N5M9YsxMYMNcmHnnnrPGzAT+lUtoYBnmPk3myFpWANvmxpnHn72WFcAsAh6W4YwZx96R5K/rGgJslb9m3tOszlzXEGDnBDwsw5zrSk+sbQWwjeacU1wDDwsg4AEAoIiABwCAIgIeAACKCHgAACgi4AEAoIiABwCAIgIeAACKCHgAACgi4AEAoIiABwCAIgIeAACKCHgAACgi4AEAoIiABwCAIgIeAACKCHgAACgi4AEAoIiABwCAIgIeAACKCHgAACgi4AEAoIiABwCAIgIeAACKCHgAACgi4AEAoIiABwCAIgIeAACKCHgAACgi4AEAoIiABwCAIgIeAACKCHgAACgi4AEAoIiABwCAIgIeAACKCHgAACgi4AEAoIiABwCAIgIeAACKCHgAACgi4AEAoIiABwCAIgIeAACKCHgAACgi4AEAoIiABwCAIgIeAACKCHgAACgi4AEAoIiABwCAIgIeAACKCHgAACgi4AEAoIiABwCAIgIeAACKCHgAACgi4AEAoIiABwCAIgIeAACKCHgAACgi4AEAoIiABwCAIgIeAACKCHgAACgi4AEAoIiABwCAIvtGDwC4F/uSnD96BFvpSJLjo0cA3BMBDyzZRUl+NnoEW+mxSX4+egTAPXEJDQAAFBHwAABQRMADAEARAQ8AAEUEPAAAFBHwAABQRMADAEARAQ8AAEUEPAAAFPFNrMAmuWv0ABbttNEDAE4FAQ9siluTHBw9gkW7JckDRo8A2C2X0AAAQBEBDwAARQQ8AAAUEfAAAFBEwAMAQBEBDwAARQQ8AAAUEfAAAFBEwAMAQBEBDwAARQQ8AAAUEfAAAFBEwAMAQBEBDwAARQQ8AAAUEfAAAFBEwAMAQBEBDwAARQQ8AAAUEfAAAFBEwAMAQBEBDwAARQQ8AAAUEfAAAFBEwAMAQBEBDwAARQQ8AAAUEfAAAFBEwAMAQBEBDwAARQQ8AAAUEfAAAFBk3+gBABvg3CQvT3JpkgODtyzVn5L8NMkXktwyeAtANQEPsDuvTvKBJGePHlLiXUnemOTTo4cAtBLwAKt7ZZKrk+wZvKPJ/ZN8MsmdST43eAtAJdfAA6xmf6Z33sX7fHuSvD/T3xCAmQQ8wGouz3TtO6s5L8kLRo8AaCTgAVZz8egBG+CS0QMAGgl4gNUcHz1gA/xt9ACARgIeYDXXjh6wAfwNAVYg4AFW8/Ukh0ePKHY4yTdGjwBoJOABVnM80zPgj40eUuhYpr+dy5AAViDgAVb3wyTPSnLD6CFFbkjyzEx/OwBW4IucAHbn2iRPTPKkJI9Pcs7YOYv15yTXJ/lRkhODtwBUE/AAu3ciyQ/u/gGAtXIJDQAAFBHwAABQRMADAEARAQ8AAEUEPAAAFBHwAABQRMADAEARAQ8AAEUEPAAAFBHwAABQRMADAEARAQ8AAEUEPAAAFBHwAABQRMADAEARAQ8AAEUEPAAAFBHwAABQRMADAEARAQ8AAEUEPAAAFBHwAABQRMADAEARAQ8AAEUEPAAAFBHwAABQRMADAEARAQ8AAEUEPAAAFBHwAABQRMADAEARAQ8AAEUEPAAAFBHwAABQRMADAEARAQ8AAEUEPAAAFBHwAABQRMADAEARAQ8AAEUEPAAAFBHwAABQRMADAEARAQ8AAEUEPAAAFBHwAABQRMADAEARAQ8AAEUEPAAAFBHwAABQRMADAEARAQ8AAEUEPAAAFBHwAABQRMADAEARAQ8AAEUEPAAAFBHwAABQRMADAEARAQ8AAEUEPAAAFBHwAABQRMADAEARAQ8AAEUEPAAAFBHwAABQRMADAEARAQ8AAEUEPAAAFBHwAABQRMADAEARAQ8AAEUEPAAAFBHwAABQRMADAEARAQ8AAEUEPAAAFBHwAABQRMADAEARAQ8AAEUEPAAAFBHwAABQRMADAEARAQ8AAEUEPAAAFBHwAABQRMADAEARAQ8AAEUEPAAAFBHwAABQRMADAEARAQ8AAEUEPAAAFBHwAABQRMADAEARAQ8AAEUEPAAAFBHwAABQRMADAEARAQ8AAEUEPAAAFBHwAABQRMADAEARAQ8AAEUEPAAAFBHwAABQRMADAEARAQ8AAEUEPAAAFBHwAABQRMADAEARAQ8AAEUEPAAAFBHwAABQRMADAEARAQ8AAEUEPAAAFBHwAABQRMADAEARAQ8AAEUEPAAAFBHwAABQRMADAEARAQ8AAEUEPAAAFBHwAABQRMADAEARAQ8AAEUEPAAAFBHwAABQRMADAEARAQ8AAEUEPAAAFBHwAABQRMADAEARAQ8AAEUEPAAAFBHwAABQRMADAEARAQ8AAEUEPAAAFBHwAABQRMADAEARAQ8AAEUEPAAAFBHwAABQRMADAEARAQ8AAEUEPAAAFBHwAABQRMADAEARAQ8AAEUEPAAAFBHwAABQRMADAEARAQ8AAEUEPAAAFBHwAABQRMADAEARAQ8AAEUEPAAAFBHwAABQRMADAEARAQ8AAEUEPAAAFBHwAABQRMADAEARAQ8AAEUEPAAAFBHwAABQRMADAEARAQ8AAEUEPAAAFBHwAABQRMADAEARAQ8AAEUEPAAAFBHwAABQRMADAEARAQ8AAEUEPAAAFBHwAABQRMADAEARAQ8AAEUEPAAAFBHwAABQRMADAEARAQ8AAEUEPAAAFBHwAABQRMADAEARAQ8AAEUEPAAAFBHwAABQRMADAEARAQ8AAEUEPAAAFBHwAABQZN/oAQCnyIEkx0ePYNFOGz0A4FQQ8MAmEWgAbDyX0AAAQBEBDwAARQQ8AAAUEfAAAFBEwAMAQBEBDwAARQQ8AAAUEfAAAFBEwAMAQBHfxAos2eEkDx89gq10ZPQAgP9FwANLdmeS34weAQBL4hIaAAAoIuABAKCIgAcAgCICHgAAigh4AAAoIuABAKCIgAcAgCICHgAAigh4AAAoIuABAKCIgAcAgCICHgAAigh4AAAoIuABAKCIgAcAgCICHgAAigh4AAAoIuABAKCIgAcAgCICHgAAigh4AAAoIuABAKCIgAcAgCICHgAAigh4AAAoIuABAKCIgAcAgCICHgAAigh4AAAoIuABAKCIgAcAgCICHgAAigh4AAAoIuABAKCIgAcAgCICHgAAigh4AAAoIuABAKCIgAcAgCICHgAAigh4AAAoIuABAKCIgAcAgCICHgAAigh4AAAoIuABAKCIgAcAgCICHgAAigh4AAAoIuABAKCIgAcAgCICHgAAigh4AAAoIuABAKCIgAcAgCICHgAAigh4AAAoIuABAKCIgAcAgCICHgAAigh4AAAoIuABAKCIgAcAgCICHgAAigh4AAAoIuABAKCIgIdlODnjWP+3wKnknAJl/NPCMhybceyZSc5Y1xBgq9wvyf4Zx9+xriHAzgl4WIajM48/fy0rgG1zwczjb1vLCmAWAQ/LcFvmvQt/8bqGAFvlohnHHkty+7qGADsn4GEZTiT59YzjX7SuIcBWefGMYw9n3v06wJoIeFiOX8w49sokp69rCLAVTk9yxYzjf7muIcA8Ah6W49szjn1wkteuawiwFV6f6VyyU99a1xAAaPXITB9P7/TnSJKzhiwF2p2d5KbMO+dcOGQpACzcTzLvBfXLSfYMWQq02pPk85l3rrl2yFIAKPCWzHtRPZnkHUOWAq3emfnnmTcPWQoABQ5meqTk3BfXq+KmVuDe7Uvynsw/v/wlyYEBewGgxnsz/wX2ZKYbzB43YC+wfJcm+U5WO7e8e8BeAKhybpJbstoL7V1Jrk7y9HjKFGy7vZnOBVdnOjesck65OdMng8CCuPkNlul1ST66y9/xhySHktyY5LdJ7tjtKGDxzkzysCQXJHl2kgfu8ve9JsnHd/k7gFNMwMMy7U1yTZLnjx4CbK1rMn3R08nRQ4B/J+Bhuc7L9FjJC0YPAbbO75I8IdPlfMDCuEYWluvmJC9I8ufRQ4CtcluSKyPeYbEEPCzbz5K8NMmx0UOArXAsyUsyffoHLJSAh+U7lOQ58W4YsF63Zrrv5tDoIcC9E/DQ4YdJnpHpHXmAU+2GJE9N8t3RQ4D/77TRA4Ad+2Om5zkfTHJZ3IQO7N6JJB9K8ookNw3eAuyQAIBOT03ywUwhD7CKHyV5Q6ZP+IAiLqGBTt9P8qRMz2j2kTcwx3eSvDDJUyLeoZJ34GEzPCrJq5JcnuTxcXkc8E93ZXqqzDVJPpvkV2PnALsl4GHzHMh0ac2jM4X9WUn2D10E3JeOJrk9U6gfTnJdpifMAAAAAAAAAAAAAAAAAAAAAAAAAAAAAAAAAAAAAAAAAAAAAAAAAAAAAAAAAAAAAAAAAAAAAAAAAAAAAAAAAAAAAAAAAAAAAAAAAAAAAAAAAAAAAAAAAAAAAAAAAAAAAAAAAAAAAAAAAAAAAAAAAAAAAAAAAAAAAAAAAAAAAAAAAAAAAAAAAAAAAAAAAAAAAAAAAAAAAAAAAAAAAAAAAAAAAAAAAAAAAAAAAAAAAAAAAAAAAAAAAAAAAAAAAAAAAAAAAAAAAAAAAAAAAAAAAAAAAAAAAAAAAAAAAAAAAAAAAAAAAAAAAAAAAAAAAAAAAAAAAAAAAAAAAAAAAAAAAAAAAAAAAAAAAAAAAAAAAAAAAAAAAAAAAAAAAAAAAAAAAAAAAAAAAAAAAAAAAAAAAAAAAAAAAAAAAAAAAAAAAAAAAAAAAAAAAAAAAAAAAAAAAAAAAAAAAAAAAAAAAAAAAAAAAAAAAAAAAAAAAAAAAAAAAAAAAAAAAAAAAAAAAAAAAAAAAAAAAAAAAAAAAAAAAAAAAAAAAAAAAAAAAAAAAAAAAAAAAAAAAAAAAAAAAAAAAAAAAAAAAAAAMNvfAbucPFO/iOUXAAAAAElFTkSuQmCC;clipPath=inset(18.33% 28.33% 18.33% 28.33%);" vertex="1" parent="1">
          <mxGeometry x="206.32" y="500" width="27.37" height="40" as="geometry" />
        </mxCell>
      </root>
    </mxGraphModel>
  </diagram>
</mxfile>
